<svg width="986" height="313" viewBox="0 0 986 313" fill="none" xmlns="http://www.w3.org/2000/svg">
<path d="M56.2616 75H53.8816L51.1816 69.72H48.5216V75H46.2616V61.58H50.9816C54.0416 61.58 55.9816 62.94 55.9816 65.56C55.9816 67.38 54.9616 68.74 53.3416 69.3L56.2616 75ZM48.5216 67.9H50.9416C52.6016 67.9 53.6616 67.12 53.6616 65.56C53.6616 64.14 52.6816 63.42 50.9016 63.42H48.5216V67.9ZM67.1357 70.44H59.9157C60.0157 72.42 60.9357 73.54 62.5757 73.54C63.9357 73.54 64.6357 72.92 64.8957 71.92H67.0957C66.6357 74 65.1157 75.24 62.6357 75.24C59.5157 75.24 57.6357 73.26 57.6357 69.94C57.6357 66.5 59.5957 64.5 62.6357 64.5C65.5157 64.5 67.1957 66.3 67.1957 69.54L67.1357 70.44ZM59.9557 68.82H64.9157C64.7957 67.18 64.1557 66.18 62.5757 66.18C61.0557 66.18 60.1757 67.12 59.9557 68.82ZM71.9968 79.24H69.7968V64.72H71.8768V66.74C72.6368 65.14 73.8368 64.5 75.3168 64.5C77.5368 64.5 79.3968 66.02 79.3968 69.88C79.3968 73.62 77.5568 75.24 75.3168 75.24C73.8768 75.24 72.6768 74.66 71.9168 73.12L71.9968 74.7V79.24ZM74.6568 73.54C76.0568 73.54 77.1368 72.44 77.1368 69.88C77.1368 67.28 76.0568 66.18 74.6568 66.18C73.0368 66.18 71.9768 67.18 71.9768 69.88C71.9768 72.5 73.0168 73.54 74.6568 73.54ZM90.8471 75H88.7671V72.94C88.0271 74.52 86.8271 75.24 85.2871 75.24C83.4671 75.24 81.8671 74.28 81.8671 71.9V64.72H84.0671V71.14C84.0671 72.56 84.7071 73.4 86.0871 73.4C87.6071 73.4 88.6471 72.2 88.6471 70.28V64.72H90.8471V75ZM99.0755 73.34V75.02C98.6155 75.2 97.9555 75.24 97.8155 75.24C94.6555 75.24 94.3355 73.56 94.3355 71.14V66.46H92.8155V64.78H94.3355V62.1H96.5355V64.78H99.0755V66.46H96.5355V71.12C96.5355 72.7 96.7755 73.34 98.0355 73.34H99.0755ZM110.724 73.54V75.02C110.184 75.16 109.604 75.24 109.264 75.24C107.744 75.24 107.164 74.72 107.144 73.2C106.344 74.8 104.984 75.24 103.824 75.24C102.424 75.24 100.444 74.62 100.444 72.2C100.444 69.52 102.664 69.06 105.144 68.96L107.044 68.88V67.9C107.044 66.86 106.664 66.06 105.024 66.06C104.144 66.06 103.044 66.36 102.924 67.7L100.784 67.52C100.984 65.18 103.364 64.5 105.024 64.5C108.024 64.5 109.244 65.74 109.244 67.8V72.16C109.244 73.22 109.344 73.54 110.044 73.54H110.724ZM107.044 70.68V70.24L105.104 70.32C103.744 70.38 102.664 70.74 102.664 72.06C102.664 73.42 103.924 73.56 104.544 73.56C105.824 73.56 107.044 72.62 107.044 70.68ZM117.669 73.34V75.02C117.209 75.2 116.549 75.24 116.409 75.24C113.249 75.24 112.929 73.56 112.929 71.14V66.46H111.409V64.78H112.929V62.1H115.129V64.78H117.669V66.46H115.129V71.12C115.129 72.7 115.369 73.34 116.629 73.34H117.669ZM121.977 75H119.777V64.72H121.977V75ZM122.037 62.92H119.717V60.88H122.037V62.92ZM129.369 75.24C126.329 75.24 124.449 73.22 124.449 69.88C124.449 66.48 126.329 64.5 129.369 64.5C132.389 64.5 134.269 66.48 134.269 69.88C134.269 73.22 132.389 75.24 129.369 75.24ZM129.369 73.54C131.129 73.54 132.009 72.22 132.009 69.88C132.009 67.52 131.129 66.18 129.369 66.18C127.609 66.18 126.709 67.52 126.709 69.88C126.709 72.22 127.609 73.54 129.369 73.54ZM145.77 75H143.57V68.56C143.57 67.18 142.89 66.32 141.55 66.32C139.99 66.32 138.95 67.52 138.95 69.44V75H136.75V64.72H138.83V66.78C139.59 65.14 140.83 64.5 142.35 64.5C144.09 64.5 145.77 65.46 145.77 67.76V75Z" fill="#808080"/>
<rect x="1.5" y="40.5" width="189" height="56" stroke="#808080" stroke-width="3"/>
<path d="M123.09 167H120.83V153.58H123.09V167ZM135.16 167H133.08V165C132.3 166.62 131.1 167.24 129.64 167.24C127.42 167.24 125.58 165.72 125.58 161.86C125.58 158.1 127.42 156.5 129.64 156.5C131.1 156.5 132.32 157.1 133.04 158.62L132.96 157.14V152.6H135.16V167ZM130.32 165.56C131.92 165.56 132.98 164.52 132.98 161.86C132.98 159.22 131.94 158.18 130.32 158.18C128.92 158.18 127.84 159.28 127.84 161.86C127.84 164.46 128.92 165.56 130.32 165.56ZM147.27 162.44H140.05C140.15 164.42 141.07 165.54 142.71 165.54C144.07 165.54 144.77 164.92 145.03 163.92H147.23C146.77 166 145.25 167.24 142.77 167.24C139.65 167.24 137.77 165.26 137.77 161.94C137.77 158.5 139.73 156.5 142.77 156.5C145.65 156.5 147.33 158.3 147.33 161.54L147.27 162.44ZM140.09 160.82H145.05C144.93 159.18 144.29 158.18 142.71 158.18C141.19 158.18 140.31 159.12 140.09 160.82ZM158.952 167H156.752V160.56C156.752 159.18 156.072 158.32 154.732 158.32C153.172 158.32 152.132 159.52 152.132 161.44V167H149.932V156.72H152.012V158.78C152.772 157.14 154.012 156.5 155.532 156.5C157.272 156.5 158.952 157.46 158.952 159.76V167ZM167.14 165.34V167.02C166.68 167.2 166.02 167.24 165.88 167.24C162.72 167.24 162.4 165.56 162.4 163.14V158.46H160.88V156.78H162.4V154.1H164.6V156.78H167.14V158.46H164.6V163.12C164.6 164.7 164.84 165.34 166.1 165.34H167.14ZM171.448 167H169.248V156.72H171.448V167ZM171.508 154.92H169.188V152.88H171.508V154.92ZM179.659 165.34V167.02C179.199 167.2 178.539 167.24 178.399 167.24C175.239 167.24 174.919 165.56 174.919 163.14V158.46H173.399V156.78H174.919V154.1H177.119V156.78H179.659V158.46H177.119V163.12C177.119 164.7 177.359 165.34 178.619 165.34H179.659ZM184.727 171.24H182.587L184.387 166.64L180.527 156.72H182.867L185.527 164.36L188.267 156.72H190.567L184.727 171.24Z" fill="#808080"/>
<rect x="60.5" y="132.5" width="189" height="56" stroke="#808080" stroke-width="3"/>
<path d="M482.014 148.84H484.334C483.714 151.62 481.694 153.26 478.754 153.26C474.854 153.26 472.454 150.64 472.454 146.3C472.454 141.98 474.934 139.36 478.754 139.36C481.734 139.36 483.734 140.98 484.334 143.7H481.994C481.594 142.12 480.454 141.24 478.754 141.24C476.154 141.24 474.774 143.14 474.774 146.3C474.774 149.44 476.154 151.34 478.754 151.34C480.514 151.34 481.614 150.46 482.014 148.84ZM498.321 148.48H486.901V146.88H498.321V148.48ZM513.35 153H510.93L509.65 149.48H504.03L502.77 153H500.39L505.43 139.58H508.31L513.35 153ZM509.03 147.58L506.83 141.6L504.65 147.58H509.03ZM518.839 153H516.579V141.42H512.359V139.58H523.059V141.42H518.839V153ZM530.226 153H527.966V141.42H523.746V139.58H534.446V141.42H530.226V153ZM545.84 143.48H543.58C543.44 141.46 541.86 141.1 540.6 141.1C539.3 141.1 537.98 141.6 537.98 142.9C537.98 146.28 545.94 144.18 545.94 149.26C545.94 151.54 544.16 153.26 540.58 153.26C539.12 153.26 535.44 152.8 535.26 148.84H537.52C537.6 150.86 539.2 151.48 540.78 151.48C542.36 151.48 543.62 150.92 543.62 149.54C543.62 146.1 535.68 148.34 535.68 143.08C535.68 140.44 538.22 139.36 540.82 139.36C542.48 139.36 545.66 139.94 545.84 143.48Z" fill="#808080"/>
<rect x="414.5" y="118.5" width="189" height="56" stroke="#808080" stroke-width="3"/>
<path d="M849.329 69.84H851.649C851.029 72.62 849.009 74.26 846.069 74.26C842.169 74.26 839.769 71.64 839.769 67.3C839.769 62.98 842.249 60.36 846.069 60.36C849.049 60.36 851.049 61.98 851.649 64.7H849.309C848.909 63.12 847.769 62.24 846.069 62.24C843.469 62.24 842.089 64.14 842.089 67.3C842.089 70.44 843.469 72.34 846.069 72.34C847.829 72.34 848.929 71.46 849.329 69.84ZM858.435 74.24C855.395 74.24 853.515 72.22 853.515 68.88C853.515 65.48 855.395 63.5 858.435 63.5C861.455 63.5 863.335 65.48 863.335 68.88C863.335 72.22 861.455 74.24 858.435 74.24ZM858.435 72.54C860.195 72.54 861.075 71.22 861.075 68.88C861.075 66.52 860.195 65.18 858.435 65.18C856.675 65.18 855.775 66.52 855.775 68.88C855.775 71.22 856.675 72.54 858.435 72.54ZM880.836 74H878.636V67.56C878.636 66.18 877.996 65.32 876.776 65.32C875.376 65.32 874.436 66.52 874.436 68.44V74H872.236V67.56C872.236 66.18 871.596 65.32 870.356 65.32C868.976 65.32 868.016 66.52 868.016 68.44V74H865.816V63.72H867.896V65.8C868.596 64.16 869.756 63.5 871.156 63.5C872.576 63.5 873.916 64.18 874.316 65.76C874.996 64.2 876.116 63.5 877.576 63.5C879.236 63.5 880.836 64.46 880.836 66.76V74ZM886.161 78.24H883.961V63.72H886.041V65.74C886.801 64.14 888.001 63.5 889.481 63.5C891.701 63.5 893.561 65.02 893.561 68.88C893.561 72.62 891.721 74.24 889.481 74.24C888.041 74.24 886.841 73.66 886.081 72.12L886.161 73.7V78.24ZM888.821 72.54C890.221 72.54 891.301 71.44 891.301 68.88C891.301 66.28 890.221 65.18 888.821 65.18C887.201 65.18 886.141 66.18 886.141 68.88C886.141 71.5 887.181 72.54 888.821 72.54ZM900.271 74.24C897.231 74.24 895.351 72.22 895.351 68.88C895.351 65.48 897.231 63.5 900.271 63.5C903.291 63.5 905.171 65.48 905.171 68.88C905.171 72.22 903.291 74.24 900.271 74.24ZM900.271 72.54C902.031 72.54 902.911 71.22 902.911 68.88C902.911 66.52 902.031 65.18 900.271 65.18C898.511 65.18 897.611 66.52 897.611 68.88C897.611 71.22 898.511 72.54 900.271 72.54ZM915.292 66.56L913.212 66.64C913.092 65.32 912.172 64.98 911.192 64.98C910.212 64.98 909.332 65.26 909.332 66.18C909.332 68.68 915.412 67.18 915.412 71.2C915.412 73.04 913.792 74.24 911.092 74.24C909.812 74.24 907.092 73.84 906.832 71.04H908.972C909.112 72.3 910.132 72.66 911.172 72.66C912.492 72.66 913.232 72.24 913.232 71.36C913.232 68.88 907.152 70.34 907.152 66.38C907.152 64.4 909.212 63.5 911.152 63.5C912.712 63.5 915.012 63.9 915.292 66.56ZM920.009 74H917.809V63.72H920.009V74ZM920.069 61.92H917.749V59.88H920.069V61.92ZM928.22 72.34V74.02C927.76 74.2 927.1 74.24 926.96 74.24C923.8 74.24 923.48 72.56 923.48 70.14V65.46H921.96V63.78H923.48V61.1H925.68V63.78H928.22V65.46H925.68V70.12C925.68 71.7 925.92 72.34 927.18 72.34H928.22ZM939.19 69.44H931.97C932.07 71.42 932.99 72.54 934.63 72.54C935.99 72.54 936.69 71.92 936.95 70.92H939.15C938.69 73 937.17 74.24 934.69 74.24C931.57 74.24 929.69 72.26 929.69 68.94C929.69 65.5 931.65 63.5 934.69 63.5C937.57 63.5 939.25 65.3 939.25 68.54L939.19 69.44ZM932.01 67.82H936.97C936.85 66.18 936.21 65.18 934.63 65.18C933.11 65.18 932.23 66.12 932.01 67.82ZM850.625 98H848.205L846.925 94.48H841.305L840.045 98H837.665L842.705 84.58H845.585L850.625 98ZM846.305 92.58L844.105 86.6L841.925 92.58H846.305ZM857.536 96.34V98.02C857.076 98.2 856.416 98.24 856.276 98.24C853.116 98.24 852.796 96.56 852.796 94.14V89.46H851.276V87.78H852.796V85.1H854.996V87.78H857.536V89.46H854.996V94.12C854.996 95.7 855.236 96.34 856.496 96.34H857.536ZM864.704 96.34V98.02C864.244 98.2 863.584 98.24 863.444 98.24C860.284 98.24 859.964 96.56 859.964 94.14V89.46H858.444V87.78H859.964V85.1H862.164V87.78H864.704V89.46H862.164V94.12C862.164 95.7 862.404 96.34 863.664 96.34H864.704ZM875.675 93.44H868.455C868.555 95.42 869.475 96.54 871.115 96.54C872.475 96.54 873.175 95.92 873.435 94.92H875.635C875.175 97 873.655 98.24 871.175 98.24C868.055 98.24 866.175 96.26 866.175 92.94C866.175 89.5 868.135 87.5 871.175 87.5C874.055 87.5 875.735 89.3 875.735 92.54L875.675 93.44ZM868.495 91.82H873.455C873.335 90.18 872.695 89.18 871.115 89.18C869.595 89.18 868.715 90.12 868.495 91.82ZM885.976 90.56L883.896 90.64C883.776 89.32 882.856 88.98 881.876 88.98C880.896 88.98 880.016 89.26 880.016 90.18C880.016 92.68 886.096 91.18 886.096 95.2C886.096 97.04 884.476 98.24 881.776 98.24C880.496 98.24 877.776 97.84 877.516 95.04H879.656C879.796 96.3 880.816 96.66 881.856 96.66C883.176 96.66 883.916 96.24 883.916 95.36C883.916 92.88 877.836 94.34 877.836 90.38C877.836 88.4 879.896 87.5 881.836 87.5C883.396 87.5 885.696 87.9 885.976 90.56ZM893.552 96.34V98.02C893.092 98.2 892.432 98.24 892.292 98.24C889.132 98.24 888.812 96.56 888.812 94.14V89.46H887.292V87.78H888.812V85.1H891.012V87.78H893.552V89.46H891.012V94.12C891.012 95.7 891.252 96.34 892.512 96.34H893.552ZM905.2 96.54V98.02C904.66 98.16 904.08 98.24 903.74 98.24C902.22 98.24 901.64 97.72 901.62 96.2C900.82 97.8 899.46 98.24 898.3 98.24C896.9 98.24 894.92 97.62 894.92 95.2C894.92 92.52 897.14 92.06 899.62 91.96L901.52 91.88V90.9C901.52 89.86 901.14 89.06 899.5 89.06C898.62 89.06 897.52 89.36 897.4 90.7L895.26 90.52C895.46 88.18 897.84 87.5 899.5 87.5C902.5 87.5 903.72 88.74 903.72 90.8V95.16C903.72 96.22 903.82 96.54 904.52 96.54H905.2ZM901.52 93.68V93.24L899.58 93.32C898.22 93.38 897.14 93.74 897.14 95.06C897.14 96.42 898.4 96.56 899.02 96.56C900.3 96.56 901.52 95.62 901.52 93.68ZM912.146 96.34V98.02C911.686 98.2 911.026 98.24 910.886 98.24C907.726 98.24 907.406 96.56 907.406 94.14V89.46H905.886V87.78H907.406V85.1H909.606V87.78H912.146V89.46H909.606V94.12C909.606 95.7 909.846 96.34 911.106 96.34H912.146ZM916.454 98H914.254V87.72H916.454V98ZM916.514 85.92H914.194V83.88H916.514V85.92ZM923.845 98.24C920.805 98.24 918.925 96.22 918.925 92.88C918.925 89.48 920.805 87.5 923.845 87.5C926.865 87.5 928.745 89.48 928.745 92.88C928.745 96.22 926.865 98.24 923.845 98.24ZM923.845 96.54C925.605 96.54 926.485 95.22 926.485 92.88C926.485 90.52 925.605 89.18 923.845 89.18C922.085 89.18 921.185 90.52 921.185 92.88C921.185 95.22 922.085 96.54 923.845 96.54ZM940.246 98H938.046V91.56C938.046 90.18 937.366 89.32 936.026 89.32C934.466 89.32 933.426 90.52 933.426 92.44V98H931.226V87.72H933.306V89.78C934.066 88.14 935.306 87.5 936.826 87.5C938.566 87.5 940.246 88.46 940.246 90.76V98Z" fill="#808080"/>
<rect x="795.5" y="40.5" width="189" height="229" stroke="#808080" stroke-width="3"/>
<rect x="811.5" y="118.5" width="156" height="31" stroke="#808080" stroke-width="3" stroke-dasharray="6 6"/>
<rect x="811.5" y="218.5" width="156" height="31" stroke="#808080" stroke-width="3" stroke-dasharray="6 6"/>
<rect x="811.5" y="168.5" width="156" height="31" stroke="#808080" stroke-width="3" stroke-dasharray="6 6"/>
<path d="M58.5277 253.84H60.8477C60.2277 256.62 58.2077 258.26 55.2677 258.26C51.3677 258.26 48.9677 255.64 48.9677 251.3C48.9677 246.98 51.4477 244.36 55.2677 244.36C58.2477 244.36 60.2477 245.98 60.8477 248.7H58.5077C58.1077 247.12 56.9677 246.24 55.2677 246.24C52.6677 246.24 51.2877 248.14 51.2877 251.3C51.2877 254.44 52.6677 256.34 55.2677 256.34C57.0277 256.34 58.1277 255.46 58.5277 253.84ZM65.5945 258H63.3945V247.72H65.4745V249.86C66.1145 248.14 67.1545 247.5 68.2145 247.5C68.4345 247.5 68.7945 247.52 69.0745 247.62V249.5H68.0145C66.5945 249.5 65.5945 250.54 65.5945 252.56V258ZM79.7177 253.44H72.4977C72.5977 255.42 73.5177 256.54 75.1577 256.54C76.5177 256.54 77.2177 255.92 77.4777 254.92H79.6777C79.2177 257 77.6977 258.24 75.2177 258.24C72.0977 258.24 70.2177 256.26 70.2177 252.94C70.2177 249.5 72.1777 247.5 75.2177 247.5C78.0977 247.5 79.7777 249.3 79.7777 252.54L79.7177 253.44ZM72.5377 251.82H77.4977C77.3777 250.18 76.7377 249.18 75.1577 249.18C73.6377 249.18 72.7577 250.12 72.5377 251.82ZM91.2788 258H89.1988V256C88.4188 257.62 87.2188 258.24 85.7588 258.24C83.5388 258.24 81.6988 256.72 81.6988 252.86C81.6988 249.1 83.5388 247.5 85.7588 247.5C87.2188 247.5 88.4388 248.1 89.1588 249.62L89.0788 248.14V243.6H91.2788V258ZM86.4388 256.56C88.0388 256.56 89.0988 255.52 89.0988 252.86C89.0988 250.22 88.0588 249.18 86.4388 249.18C85.0388 249.18 83.9588 250.28 83.9588 252.86C83.9588 255.46 85.0388 256.56 86.4388 256.56ZM103.39 253.44H96.1696C96.2696 255.42 97.1896 256.54 98.8296 256.54C100.19 256.54 100.89 255.92 101.15 254.92H103.35C102.89 257 101.37 258.24 98.8896 258.24C95.7696 258.24 93.8896 256.26 93.8896 252.94C93.8896 249.5 95.8496 247.5 98.8896 247.5C101.77 247.5 103.45 249.3 103.45 252.54L103.39 253.44ZM96.2096 251.82H101.17C101.05 250.18 100.41 249.18 98.8296 249.18C97.3096 249.18 96.4296 250.12 96.2096 251.82ZM115.071 258H112.871V251.56C112.871 250.18 112.191 249.32 110.851 249.32C109.291 249.32 108.251 250.52 108.251 252.44V258H106.051V247.72H108.131V249.78C108.891 248.14 110.131 247.5 111.651 247.5C113.391 247.5 115.071 248.46 115.071 250.76V258ZM123.259 256.34V258.02C122.799 258.2 122.139 258.24 121.999 258.24C118.839 258.24 118.519 256.56 118.519 254.14V249.46H116.999V247.78H118.519V245.1H120.719V247.78H123.259V249.46H120.719V254.12C120.719 255.7 120.959 256.34 122.219 256.34H123.259ZM127.567 258H125.367V247.72H127.567V258ZM127.627 245.92H125.307V243.88H127.627V245.92ZM140.259 256.54V258.02C139.719 258.16 139.139 258.24 138.799 258.24C137.279 258.24 136.699 257.72 136.679 256.2C135.879 257.8 134.519 258.24 133.359 258.24C131.959 258.24 129.979 257.62 129.979 255.2C129.979 252.52 132.199 252.06 134.679 251.96L136.579 251.88V250.9C136.579 249.86 136.199 249.06 134.559 249.06C133.679 249.06 132.579 249.36 132.459 250.7L130.319 250.52C130.519 248.18 132.899 247.5 134.559 247.5C137.559 247.5 138.779 248.74 138.779 250.8V255.16C138.779 256.22 138.879 256.54 139.579 256.54H140.259ZM136.579 253.68V253.24L134.639 253.32C133.279 253.38 132.199 253.74 132.199 255.06C132.199 256.42 133.459 256.56 134.079 256.56C135.359 256.56 136.579 255.62 136.579 253.68ZM144.344 258H142.144V243.6H144.344V258ZM155.136 250.56L153.056 250.64C152.936 249.32 152.016 248.98 151.036 248.98C150.056 248.98 149.176 249.26 149.176 250.18C149.176 252.68 155.256 251.18 155.256 255.2C155.256 257.04 153.636 258.24 150.936 258.24C149.656 258.24 146.936 257.84 146.676 255.04H148.816C148.956 256.3 149.976 256.66 151.016 256.66C152.336 256.66 153.076 256.24 153.076 255.36C153.076 252.88 146.996 254.34 146.996 250.38C146.996 248.4 149.056 247.5 150.996 247.5C152.556 247.5 154.856 247.9 155.136 250.56Z" fill="#808080"/>
<rect x="7.5" y="223.5" width="189" height="56" stroke="#808080" stroke-width="3"/>
<path d="M397.454 126.43C398.244 126.179 398.68 125.335 398.43 124.546L394.341 111.68C394.09 110.89 393.247 110.454 392.457 110.704C391.668 110.955 391.231 111.799 391.482 112.588L395.116 124.025L383.68 127.659C382.89 127.91 382.454 128.753 382.704 129.543C382.955 130.332 383.799 130.769 384.588 130.518L397.454 126.43ZM204.729 68.4754C246.012 76.0505 342.023 98.2276 396.31 126.332L397.69 123.668C342.971 95.34 246.569 73.1026 205.271 65.5246L204.729 68.4754Z" fill="#808080"/>
<path d="M772.436 96.5647C773.229 96.8054 773.676 97.6431 773.435 98.4358L769.513 111.353C769.272 112.146 768.434 112.594 767.642 112.353C766.849 112.112 766.402 111.274 766.642 110.482L770.129 98.9995L758.647 95.5129C757.854 95.2722 757.406 94.4345 757.647 93.6418C757.888 92.8491 758.726 92.4016 759.518 92.6423L772.436 96.5647ZM617.721 144.526C650.83 138.258 727.796 119.911 771.293 96.6769L772.707 99.3231C728.771 122.792 651.406 141.202 618.279 147.474L617.721 144.526Z" fill="#808080"/>
<path d="M464.5 195.988C464.493 195.16 463.816 194.493 462.988 194.5L449.488 194.608C448.66 194.615 447.994 195.292 448 196.12C448.007 196.948 448.684 197.615 449.512 197.608L461.512 197.512L461.608 209.512C461.615 210.34 462.292 211.006 463.12 211C463.948 210.993 464.615 210.316 464.608 209.488L464.5 195.988ZM218.525 263.5C249.02 262.999 297.843 259.091 345.275 248.992C392.619 238.912 438.932 222.595 464.069 197.052L461.931 194.948C437.468 219.805 391.948 235.988 344.65 246.058C297.44 256.109 248.813 260.001 218.475 260.5L218.525 263.5Z" fill="#808080"/>
<path d="M383.768 154.301C384.211 153.601 384.001 152.674 383.301 152.232L371.887 145.023C371.186 144.58 370.26 144.79 369.818 145.49C369.375 146.191 369.584 147.117 370.285 147.559L380.431 153.967L374.023 164.113C373.58 164.814 373.79 165.74 374.49 166.182C375.191 166.625 376.117 166.416 376.559 165.715L383.768 154.301ZM266.288 166.985C279.366 168.853 320.729 168.986 382.83 154.963L382.17 152.037C320.271 166.014 279.301 165.813 266.712 164.015L266.288 166.985Z" fill="#808080"/>
</svg>
